<svg width="20" height="16" viewBox="0 0 20 16" fill="none" xmlns="http://www.w3.org/2000/svg">
<path d="M1.75 7C2.15625 7 2.5 6.6875 2.5 6.25V1.75C2.5 1.625 2.59375 1.5 2.75 1.5H17.25C17.375 1.5 17.5 1.625 17.5 1.75V6.25C17.5 6.6875 17.8125 7 18.25 7C18.6562 7 19 6.6875 19 6.25V1.75C19 0.8125 18.1875 0 17.25 0H2.75C1.78125 0 1 0.8125 1 1.75V6.25C1 6.6875 1.3125 7 1.75 7ZM17 8C15.875 8.03125 15 8.90625 15 10C15 11.125 15.875 12 17 12C18.0938 12 18.9688 11.125 18.9688 10C18.9688 8.90625 18.0938 8.03125 17 8ZM17 10.5C16.7188 10.5 16.5 10.2812 16.5 10C16.5 9.75 16.7188 9.53125 17 9.53125C17.25 9.53125 17.4688 9.75 17.4688 10C17.4688 10.2812 17.25 10.5 17 10.5ZM10.7188 13H9.25C8 13 7 14.0625 7 15.3438C7 15.7188 7.28125 16 7.625 16H12.3438C12.6875 16 13 15.7188 13 15.3438C13 14.0625 11.9688 13 10.7188 13ZM17.7188 13H16.25C15 13 14 14.0625 14 15.3438C14 15.7188 14.2812 16 14.625 16H19.3438C19.6875 16 20 15.7188 20 15.3438C20 14.0625 18.9688 13 17.7188 13ZM8 10C8 11.125 8.875 12 9.96875 12C11.0938 12 11.9688 11.125 11.9688 10C11.9688 8.90625 11.0938 8.03125 10 8C8.875 8.03125 8 8.90625 8 10ZM10.4688 10C10.4688 10.2812 10.25 10.5 10 10.5C9.71875 10.5 9.5 10.2812 9.5 10C9.5 9.75 9.71875 9.53125 10 9.53125C10.25 9.53125 10.4688 9.75 10.4688 10ZM3.71875 13H2.25C1 13 0 14.0625 0 15.3438C0 15.7188 0.28125 16 0.625 16H5.34375C5.6875 16 6 15.7188 6 15.3438C6 14.0625 4.96875 13 3.71875 13ZM1 10C1 11.125 1.875 12 3 12C4.09375 12 4.96875 11.125 4.96875 10C4.96875 8.90625 4.09375 8.03125 3 8C1.875 8.03125 1 8.90625 1 10ZM3.46875 10C3.46875 10.2812 3.25 10.5 3 10.5C2.71875 10.5 2.5 10.2812 2.5 10C2.5 9.75 2.71875 9.53125 3 9.53125C3.25 9.53125 3.46875 9.75 3.46875 10Z" fill="white"/>
</svg>
